{"title":"Behind the Candelabra 2013.1080p.BluRay.x264 . NVEE","uid":8883439,"size":2236779824,"categoryP":"video","categoryS":"hd___movies","magnet":"?xt=urn:btih:45196e4951b5d1cec19dd8bbf1729877ca21c88f&amp;dn=Behind+the+Candelabra+2013.1080p.BluRay.x264+.+NVEE&amp;tr=udp%3A%2F%2Ftracker.openbittorrent.com%3A80&amp;tr=udp%3A%2F%2Fopen.demonii.com%3A1337&amp;tr=udp%3A%2F%2Ftracker.coppersurfer.tk%3A6969&amp;tr=udp%3A%2F%2Fexodus.desync.com%3A6969","seeders":1,"leechers":1,"uploader":".NVEE","files":3,"time":1378391382,"description":"\nFULL_INFOs\n\n\n99.99% --- SYNCED GUARANTEED \n\n&quot;Totally scrutinized / analyzed to be a verified torrent.&quot;\n___________________________________________\n\nSource : BluRay ~ &quot;True'&quot; 1080p\n\nMy Media Player of Choice &quot;VLC Media Player&quot;\n\nSpoken Language : English Only\n\nAudio : 6 ~ Channels Only\n\nOnly @ https://kickass.to/user/.NVEE/uploads/\n\n\n\n &lt;a href=&quot;\nhttp://www.imdb.com/title/tt1291580/&quot; rel=&quot;nofollow&quot; target=&quot;_NEW&quot;&gt;\nhttp://www.imdb.com/title/tt1291580/&lt;/a&gt;\n\n\n\n\nSubs Info : MULTI_SUBS\n\n &lt;a href=&quot;\nhttp://www.subtitleseeker.com/1291580/Behind+the+Candelabra/Subtitles/&quot; rel=&quot;nofollow&quot; target=&quot;_NEW&quot;&gt;\nhttp://www.subtitleseeker.com/1291580/Behind+the+Candelabra/Subtitles/&lt;/a&gt;\n\n171 Subtitles In 22 Languages Use Link Provided \n &lt;a href=&quot;\nhttp://www.subtitleseeker.com/1291580/Behind+the+Candelabra/Subtitles/&quot; rel=&quot;nofollow&quot; target=&quot;_NEW&quot;&gt;\nhttp://www.subtitleseeker.com/1291580/Behind+the+Candelabra/Subtitles/&lt;/a&gt;\n\n171 Subtitles In 22 Languages Only @ SubtitleSeeker\n &lt;a href=&quot;\nhttp://www.subtitleseeker.com/1291580/Behind+the+Candelabra/Subtitles/&quot; rel=&quot;nofollow&quot; target=&quot;_NEW&quot;&gt;\nhttp://www.subtitleseeker.com/1291580/Behind+the+Candelabra/Subtitles/&lt;/a&gt;\n\nAll .srt subs can be turned On/Off\n\n\n\n &lt;a href=&quot;\nhttp://www.imdb.com/title/tt1291580/&quot; rel=&quot;nofollow&quot; target=&quot;_NEW&quot;&gt;\nhttp://www.imdb.com/title/tt1291580/&lt;/a&gt;\n\n\n\n\n--------------------------------------------------------------------------------\n\n\n\nGeneral\n\nComplete name : Behind the Candelabra 2013.1080p.BluRay.x264 . NVEE.mp4\nFormat : MPEG-4\nFormat profile : Base Media\nCodec ID : isom\nFile size : 2.08 GiB\nDuration : 1h 58mn\nOverall bit rate : 2 515 Kbps\nEncoded date : UTC 2013-09-03 23:51:19\nTagged date : UTC 2013-09-03 23:51:19\n\nVideo\n\nID : 1\nFormat : AVC\nFormat/Info : Advanced Video Codec\nFormat profile : &lt;a class=&quot;__cf_email__&quot; href=&quot;/cdn-cgi/l/email-protection&quot; data-cfemail=&quot;4109282629010d756f71&quot;&gt;[email&amp;#160;protected]&lt;/a&gt;&lt;script cf-hash='f9e31' type=&quot;text/javascript&quot;&gt;\n/* &lt;![CDATA[ */!function(){try{var t=&quot;currentScript&quot;in document?document.currentScript:function(){for(var t=document.getElementsByTagName(&quot;script&quot;),e=t.length;e--;)if(t[e].getAttribute(&quot;cf-hash&quot;))return t[e]}();if(t&amp;&amp;t.previousSibling){var e,r,n,i,c=t.previousSibling,a=c.getAttribute(&quot;data-cfemail&quot;);if(a){for(e=&quot;&quot;,r=parseInt(a.substr(0,2),16),n=2;a.length-n;n+=2)i=parseInt(a.substr(n,2),16)^r,e+=String.fromCharCode(i);e=document.createTextNode(e),c.parentNode.replaceChild(e,c)}}}catch(u){}}();/* ]]&gt; */&lt;/script&gt;\nFormat settings, CABAC : Yes\nFormat settings, ReFrames : 4 frames\nCodec ID : avc1\nCodec ID/Info : Advanced Video Coding\nDuration : 1h 58mn\nBit rate : 2 001 Kbps\nMaximum bit rate : 11.3 Mbps\nWidth : 1 920 pixels\nHeight : 1 080 pixels\nDisplay aspect ratio : 16:9\nFrame rate mode : Constant\nFrame rate : 23.976 fps\nColor space : YUV\nChroma subsampling : 4:2:0\nBit depth : 8 bits\nScan type : Progressive\nBits/(Pixel*Frame) : 0.040\nStream size : 1.66 GiB (80%)\nTitle : 1080p.BluRay.x264 .264#trackID=1:fps=&lt;a class=&quot;__cf_email__&quot; href=&quot;/cdn-cgi/l/email-protection&quot; data-cfemail=&quot;784a4b56414f4e383f28393b48564d5649553c3d2e550a1d0e4c4a404b&quot;&gt;[email&amp;#160;protected]&lt;/a&gt;&lt;script cf-hash='f9e31' type=&quot;text/javascript&quot;&gt;\n/* &lt;![CDATA[ */!function(){try{var t=&quot;currentScript&quot;in document?document.currentScript:function(){for(var t=document.getElementsByTagName(&quot;script&quot;),e=t.length;e--;)if(t[e].getAttribute(&quot;cf-hash&quot;))return t[e]}();if(t&amp;&amp;t.previousSibling){var e,r,n,i,c=t.previousSibling,a=c.getAttribute(&quot;data-cfemail&quot;);if(a){for(e=&quot;&quot;,r=parseInt(a.substr(0,2),16),n=2;a.length-n;n+=2)i=parseInt(a.substr(n,2),16)^r,e+=String.fromCharCode(i);e=document.createTextNode(e),c.parentNode.replaceChild(e,c)}}}catch(u){}}();/* ]]&gt; */&lt;/script&gt;\nWriting library : x264 core 133 r2334 a3ac64b\nEncoded date : UTC 2013-09-03 23:51:19\nTagged date : UTC 2013-09-04 00:17:05\n\nAudio\n\nID : 2\nFormat : AC-3\nFormat/Info : Audio Coding 3\nMode extension : CM (complete main)\nFormat settings, Endianness : Big\nCodec ID : ac-3\nDuration : 1h 58mn\nBit rate mode : Constant\nBit rate : 512 Kbps\nChannel(s) : 6 channels\nChannel positions : Front: L C R, Side: L R, LFE\nSampling rate : 48.0 KHz\nBit depth : 16 bits\nCompression mode : Lossy\nStream size : 434 MiB (20%)\nTitle : 1080p.BluRay.x264 . NVEE - [0] English_audio.ac3#trackID=1:lang=&lt;a class=&quot;__cf_email__&quot; href=&quot;/cdn-cgi/l/email-protection&quot; data-cfemail=&quot;b6d3d8f6f1e6f7f586988398879bf2f3e09bc4d3c082848e85&quot;&gt;[email&amp;#160;protected]&lt;/a&gt;&lt;script cf-hash='f9e31' type=&quot;text/javascript&quot;&gt;\n/* &lt;![CDATA[ */!function(){try{var t=&quot;currentScript&quot;in document?document.currentScript:function(){for(var t=document.getElementsByTagName(&quot;script&quot;),e=t.length;e--;)if(t[e].getAttribute(&quot;cf-hash&quot;))return t[e]}();if(t&amp;&amp;t.previousSibling){var e,r,n,i,c=t.previousSibling,a=c.getAttribute(&quot;data-cfemail&quot;);if(a){for(e=&quot;&quot;,r=parseInt(a.substr(0,2),16),n=2;a.length-n;n+=2)i=parseInt(a.substr(n,2),16)^r,e+=String.fromCharCode(i);e=document.createTextNode(e),c.parentNode.replaceChild(e,c)}}}catch(u){}}();/* ]]&gt; */&lt;/script&gt;\nLanguage : English\nEncoded date : UTC 2013-09-04 00:11:45\nTagged date : UTC 2013-09-04 00:17:05\n\n\n\nSynopsis\n\nIn 1977, 17-year-old Scott Thorson, who works as an animal trainer for movies, meets Bob Black, a Hollywood producer, in a bar. At Black's urging, he leaves his adopted home in search of better-paying work. Black introduces Thorson to Liberace, who takes an immediate liking to the handsome younger man. Liberace invites the two backstage and then to his luxurious home. Thorson observes that one of Liberace's beloved dogs is suffering from a temporary form of blindness, and with his veterinary assistant background, informs the famous pianist that he knows how to cure the condition. After treating the dog, Thorson becomes Liberace's &quot;assistant&quot; at the performer's request.\nScott moves in with Liberace and becomes his lover. At this point Scott says that he is bisexual because he is also attracted to women. Liberace is sympathetic, informing him that he wanted and tried to love women, but was exclusively attracted to men. He relates a story of a &quot;divine healing&quot; in which a &quot;messenger&quot; informed him that God still loved him.\nIt gradually becomes clear that Liberace is trying to mold Scott into a younger version of himself; he requests his plastic surgeon Dr. Startz to transform Scott's face to more closely resemble his own and makes an unsuccessful attempt to formally adopt him. When Liberace begins visiting pornographic theaters and suggests they see other people, Scott becomes upset. Meanwhile, Scott's drug abuse and Liberace's promiscuity create a rift that ultimately destroys their relationship: Scott retains an attorney to seek his financial share of the property, and Liberace ends their formal partnership and involves himself with his most recent &quot;assistant&quot;.\nNot long thereafter, Scott receives a phone call from Liberace telling him that he is very sick with what is later revealed to be AIDS, and would like Scott to visit him again. Scott agrees, and he and Liberace have one last, emotional deathbed conversation before Liberace dies in February 1987. Scott attends Liberace's funeral, in which he imagines seeing Liberace performing one last time with his traditional flamboyance, before being lifted to heaven with a stage harness.\n\nAbsolutely awesome torrent file,... Enjoy !","torrent":{"xt":"urn:btih:45196e4951b5d1cec19dd8bbf1729877ca21c88f","amp;dn":"Behind+the+Candelabra+2013.1080p.BluRay.x264+.+NVEE","amp;tr":["udp%3A%2F%2Ftracker.openbittorrent.com%3A80","udp%3A%2F%2Fopen.demonii.com%3A1337","udp%3A%2F%2Ftracker.coppersurfer.tk%3A6969","udp%3A%2F%2Fexodus.desync.com%3A6969"],"infoHash":"45196e4951b5d1cec19dd8bbf1729877ca21c88f","infoHashBuffer":{"type":"Buffer","data":[69,25,110,73,81,181,209,206,193,157,216,187,241,114,152,119,202,33,200,143]},"announce":[],"urlList":[]}}